<?xml version="1.0" encoding="UTF-8"?>
<svg id="Camada_1" data-name="Camada 1" xmlns="http://www.w3.org/2000/svg" xmlns:xlink="http://www.w3.org/1999/xlink" width="1080" height="1080" viewBox="0 0 1080 1080">
  <defs>
    <style>
      .cls-1 {
        fill: #c6b8bb;
      }

      .cls-2 {
        fill: #cd3268;
      }

      .cls-3 {
        fill: #140b15;
      }

      .cls-4 {
        fill: #ead8dc;
      }

      .cls-5 {
        fill: url(#Gradiente_sem_nome_20);
      }
    </style>
    <linearGradient id="Gradiente_sem_nome_20" data-name="Gradiente sem nome 20" x1="558.49" y1="29.67" x2="558.49" y2="1063.35" gradientTransform="translate(1047.7639 -63.4319) rotate(85.0001)" gradientUnits="userSpaceOnUse">
      <stop offset="0" stop-color="#c6b8bb"/>
      <stop offset="1" stop-color="#140b15"/>
    </linearGradient>
  </defs>
  <rect class="cls-5" x="118.49" y="225" width="880" height="630" rx="20" ry="20" transform="translate(-28.1265 1049.3053) rotate(-85.0001)"/>
  <rect class="cls-4" x="225" y="100" width="630" height="880" rx="20" ry="20"/>
  <path class="cls-1" d="M855,507.25v452.75c0,11.05-8.95,20-20,20H245c-11.05,0-20-8.95-20-20v-337.09c57.19-41.87,129.47-77.93,214.48-82.91,114.17-6.7,167.66,47.57,266.93,35.2,41.33-5.15,92.14-22.05,148.59-67.95Z"/>
  <g>
    <g>
      <g>
        <path class="cls-2" d="M510.06,446.29c-6.27-7.79-16.05-13.29-29.36-16.49,8.76-3.02,15.41-7.15,19.95-12.37,6.82-7.84,10.23-17.22,10.23-28.16,0-13.06-4.79-24.01-14.34-32.85-9.56-8.84-23.25-13.26-41.11-13.26h-107.11v185.17h98.79c4.2,0,12.76-.84,25.64-2.52,9.68-1.26,16.93-3.28,21.71-6.06,7.76-4.46,13.86-10.53,18.32-18.19,4.46-7.66,6.69-16.3,6.69-25.9,0-11.79-3.14-21.57-9.41-29.36ZM406.05,380.66h43.85c8.68,0,14.76,1.52,18.25,4.56,3.49,3.02,5.24,7.24,5.24,12.63,0,5.8-1.75,10.25-5.24,13.32-3.49,3.07-9.7,4.61-18.63,4.61h-43.48v-35.12ZM474.65,483.3c-4.04,3.49-10.98,5.24-20.84,5.24h-47.76v-37.51h47.65c10.01,0,17.02,1.67,21.02,5,4.01,3.31,6,7.71,6,13.19,0,5.9-2.02,10.59-6.06,14.08Z"/>
        <path d="M528.65,446.29c-6.27-7.79-16.05-13.29-29.36-16.49,8.76-3.02,15.41-7.15,19.95-12.37,6.82-7.84,10.23-17.22,10.23-28.16,0-13.06-4.79-24.01-14.34-32.85-9.56-8.84-23.25-13.26-41.11-13.26h-107.11v185.17h98.79c4.2,0,12.76-.84,25.64-2.52,9.68-1.26,16.93-3.28,21.71-6.06,7.76-4.46,13.86-10.53,18.32-18.19,4.46-7.66,6.69-16.3,6.69-25.9,0-11.79-3.14-21.57-9.41-29.36ZM449.9,380.66c8.68,0,14.76,1.52,18.25,4.56,3.49,3.02,5.24,7.24,5.24,12.63,0,5.8-1.75,10.25-5.24,13.32-3.49,3.07-9.7,4.61-18.63,4.61h-24.88v-35.12h25.25ZM424.64,488.53v-37.51h29.05c10.01,0,17.02,1.67,21.02,5,4.01,3.31,6,7.71,6,13.19,0,5.9-2.02,10.59-6.06,14.08-4.04,3.49-10.98,5.24-20.84,5.24h-29.17Z"/>
      </g>
      <path d="M709.07,364.82c-16.67-16.56-40.42-24.82-71.24-24.82s-53.52,8.42-70.36,25.25c-16.85,16.85-25.25,40.39-25.25,70.61,0,21.65,4.25,39.68,12.76,54.07,8.5,14.41,19.6,24.93,33.27,31.58,13.69,6.66,30.98,9.98,51.85,9.98s37.7-3.85,51.48-11.54c13.76-7.71,24.28-18.5,31.58-32.34,7.28-13.86,10.93-31.61,10.93-53.24,0-29.81-8.34-53-25.01-69.54ZM666.75,476.67c-6.74,8-16.26,12-28.55,12s-21.41-4.09-28.36-12.26c-6.94-8.16-10.41-21.6-10.41-40.29s3.49-32.38,10.48-40.55c6.98-8.16,16.25-12.26,27.79-12.26s21.57,4.03,28.6,12.08c7.03,8.04,10.56,20.78,10.56,38.2,0,20.71-3.38,35.07-10.1,43.07Z"/>
    </g>
    <g>
      <path d="M537.91,739.73l-27.55-53.39c-1.36-2.68-4.03-6.52-8.02-11.5-3.99-4.98-7.05-8.21-9.15-9.73-3.12-2.28-8.08-4.56-14.89-6.84,8.5-1.92,15.2-4.37,20.08-7.32,7.68-4.62,13.69-10.67,18.08-18.12,4.38-7.45,6.58-16.31,6.58-26.58,0-11.79-2.86-21.79-8.59-30.01-5.74-8.21-13.27-13.82-22.62-16.86-9.34-3.02-22.86-4.54-40.55-4.54h-95.36v185.17h57.48v-75.15h5.04c5.22,0,9.89,1.42,14.02,4.28,3.04,2.2,6.48,6.95,10.36,14.28l30.59,56.59h64.64l-.15-.27ZM461.95,621.52c-2.39,3.12-5.48,5.06-9.28,5.8-7.49,1.7-12.55,2.54-15.15,2.54h-24.12v-37.64h25.12c10.44,0,17.56,1.6,21.36,4.79,3.78,3.2,5.67,7.79,5.67,13.78,0,4.04-1.2,7.62-3.61,10.74Z"/>
      <path d="M669.82,554.83h-62.41l-69.51,184.9-.1.27h58.41l9.04-30.56h64.96l9.26,30.56h59.92l-69.59-185.17ZM617.68,669.39l20.23-66.56,20.45,66.56h-40.68Z"/>
    </g>
  </g>
  <g>
    <path class="cls-3" d="M349.06,245.64v3.13h-59.5v-3.13c13.78,0,24.95-11.17,24.95-24.95h9.61c0,13.78,11.17,24.95,24.95,24.95Z"/>
    <path class="cls-3" d="M319.31,208.57c0,7.22-3.09,13.71-8.01,18.24-4.42,4.07-10.31,6.55-16.78,6.55-13.69,0-24.8-11.1-24.8-24.8,0-7.3,3.16-13.87,8.18-18.4,4.4-3.98,10.23-6.39,16.61-6.39,13.69,0,24.8,11.1,24.8,24.8Z"/>
    <path class="cls-3" d="M368.89,208.57c0,13.69-11.1,24.8-24.8,24.8-6.48,0-12.37-2.48-16.78-6.55-4.92-4.54-8-11.03-8-18.25,0-13.69,11.1-24.8,24.79-24.8,6.37,0,12.18,2.4,16.57,6.35,5.05,4.54,8.23,11.12,8.23,18.45Z"/>
    <path class="cls-3" d="M362.33,191.8l-35.02,35.03c-4.92-4.54-8-11.03-8-18.25,0,7.22-3.09,13.71-8.01,18.24l-35.02-35.02,1.62-1.62,41.41-41.41,41.36,41.36,1.67,1.67Z"/>
    <rect class="cls-3" x="311.98" y="206.01" width="15.4" height="15.55"/>
  </g>
  <g>
    <path class="cls-2" d="M750.29,905c0,7.28-3.11,13.83-8.08,18.39-4.45,4.1-10.4,6.61-16.92,6.61-13.8,0-25-11.2-25-25,0-7.36,3.18-13.98,8.25-18.56,4.43-4.01,10.31-6.45,16.75-6.45,13.8,0,25,11.2,25,25Z"/>
    <path class="cls-2" d="M800.28,905c0,13.8-11.19,25-25,25-6.53,0-12.47-2.5-16.92-6.6-4.96-4.57-8.07-11.12-8.07-18.4,0-13.8,11.19-25,25-25,6.42,0,12.28,2.42,16.71,6.4,5.09,4.57,8.3,11.21,8.3,18.6Z"/>
    <path class="cls-2" d="M793.67,888.08l-35.31,35.32c-4.96-4.57-8.07-11.12-8.07-18.4,0,7.28-3.11,13.83-8.08,18.39l-35.31-35.31,1.64-1.64,41.75-41.75,41.7,41.71,1.68,1.68Z"/>
  </g>
</svg>
